<?xml version="1.0" encoding="UTF-8" standalone="no"?>
<svg
   xmlns:dc="http://purl.org/dc/elements/1.1/"
   xmlns:cc="http://creativecommons.org/ns#"
   xmlns:rdf="http://www.w3.org/1999/02/22-rdf-syntax-ns#"
   xmlns:svg="http://www.w3.org/2000/svg"
   xmlns="http://www.w3.org/2000/svg"
   viewBox="0 0 600.39203 116.362"
   height="116.362"
   width="600.39203"
   xml:space="preserve"
   id="svg2"
   version="1.1"><metadata
     id="metadata8"><rdf:RDF><cc:Work
         rdf:about=""><dc:format>image/svg+xml</dc:format><dc:type
           rdf:resource="http://purl.org/dc/dcmitype/StillImage" /></cc:Work></rdf:RDF></metadata><defs
     id="defs6"><clipPath
       id="clipPath18"
       clipPathUnits="userSpaceOnUse"><path
         id="path16"
         d="M 0,87.271 H 450.294 V 0 H 0 Z" /></clipPath></defs><g
     transform="matrix(1.3333333,0,0,-1.3333333,0,116.362)"
     id="g10"><g
       id="g12"><g
         clip-path="url(#clipPath18)"
         id="g14"><g
           transform="translate(234.8838,56.0132)"
           id="g20"><path
             id="path22"
             style="fill:#4f4c4d;fill-opacity:1;fill-rule:nonzero;stroke:none"
             d="m 0,0 h 21.015 v -4.685 h -1.52 c 0,0 -0.256,2.404 -2.661,2.404 H 13.168 V -23.928 H 7.974 V -2.281 H 4.177 c -2.023,0 -2.53,-1.647 -2.656,-2.404 l -1.521,0 z" /></g><g
           transform="translate(278.7969,56.0132)"
           id="g24"><path
             id="path26"
             style="fill:#4f4c4d;fill-opacity:1;fill-rule:nonzero;stroke:none"
             d="M 0,0 H 3.799 V -23.928 H -1.27 V -7.216 L -13.793,-23.928 H -17.6 v 19.496 c 0,2.785 -2.4,3.164 -2.4,3.164 V 0 h 7.468 v -16.838 z" /></g><g
           transform="translate(168.9448,32.0854)"
           id="g28"><path
             id="path30"
             style="fill:#4f4c4d;fill-opacity:1;fill-rule:nonzero;stroke:none"
             d="m 0,0 h -6.579 l -4.684,8.863 c 0,0 -1.394,2.656 -2.914,2.656 h -1.899 V 0 h -5.191 v 19.496 c 0,2.786 -2.531,3.033 -2.531,3.033 v 1.397 h 7.722 v -9.998 h 2.281 c 0,0 1.518,0.123 2.785,2.151 4.053,6.583 3.544,7.847 5.317,7.847 h 5.057 v -1.644 c -3.541,0 -4.554,-7.22 -7.973,-9.494 1.652,-0.631 2.279,-2.157 5.951,-8.862 0,0 0.885,-2.28 2.658,-2.28 z" /></g><g
           transform="translate(310.3232,37.2759)"
           id="g32"><path
             id="path34"
             style="fill:#4f4c4d;fill-opacity:1;fill-rule:nonzero;stroke:none"
             d="m 0,0 c -2.406,-3.291 -5.954,-5.574 -10.632,-5.574 -6.333,0 -12.411,4.941 -12.411,11.401 v 1.389 c 0,6.963 5.57,11.901 12.411,11.901 6.837,0 12.148,-5.57 12.148,-12.281 H -16.836 V 2.911 c 0,-3.415 2.783,-6.202 6.836,-6.202 3.546,0 5.948,1.516 7.852,3.546 z m -16.836,9.24 h 12.404 v 1.268 c 0,3.416 -2.782,6.201 -6.2,6.201 -3.421,0 -6.204,-2.785 -6.204,-6.201 z" /></g><g
           transform="translate(191.6309,40.313)"
           id="g36"><path
             id="path38"
             style="fill:#4f4c4d;fill-opacity:1;fill-rule:nonzero;stroke:none"
             d="m 0,0 c 0,-3.037 -2.152,-5.947 -5.443,-6.078 h -0.501 c -2.912,0 -5.447,2.153 -5.823,4.432 V 8.609 c 0.249,2.406 2.658,5.065 5.823,5.065 h 1.007 c 0,0 4.811,-0.253 4.937,-6.08 z m -4.808,16.079 c -2.912,0 -5.696,-1.263 -6.959,-3.036 v 2.656 h -7.598 v -1.393 c 0,0 2.408,-0.38 2.408,-3.038 v -30.389 h 5.19 v 13.427 c 2.405,-2.785 5.568,-2.915 6.579,-2.915 6.708,0.13 11.262,5.318 11.262,11.777 v 1.519 c 0,6.959 -4.299,11.392 -10.882,11.392" /></g><g
           transform="translate(114.5293,40.4438)"
           id="g40"><path
             id="path42"
             style="fill:#4f4c4d;fill-opacity:1;fill-rule:nonzero;stroke:none"
             d="m 0,0 c 0,-3.417 -2.656,-6.457 -6.579,-6.457 -3.93,0 -6.457,3.04 -6.457,6.457 v 7.596 c 0,3.419 2.905,6.076 6.457,6.076 C -2.656,13.672 0,10.888 0,7.467 Z m -6.579,15.951 c -8.993,0 -12.664,-6.962 -12.664,-11.525 V 2.404 c 0,-5.315 5.193,-11.142 12.664,-11.142 6.963,0 12.784,5.19 12.784,11.27 v 1.647 c 0,6.073 -4.811,11.772 -12.784,11.772" /></g><g
           transform="translate(231.3403,56.0132)"
           id="g44"><path
             id="path46"
             style="fill:#4f4c4d;fill-opacity:1;fill-rule:nonzero;stroke:none"
             d="m 0,0 h -7.594 v -1.395 c 0,0 2.53,-0.378 2.53,-3.164 V -23.928 H 0 Z" /></g><g
           transform="translate(209.0562,34.4893)"
           id="g48"><path
             id="path50"
             style="fill:#4f4c4d;fill-opacity:1;fill-rule:nonzero;stroke:none"
             d="m 0,0 v 10.001 h 4.431 c 2.405,0 4.301,-1.897 4.301,-4.685 V 4.301 C 8.732,2.026 6.583,0 4.304,0 Z m 0,12.404 v 9.118 h -7.594 v -1.396 c 0,0 2.276,-0.249 2.276,-3.035 V -2.407 H 6.457 c 4.553,0 7.846,2.787 7.846,6.708 v 1.14 c 0,4.313 -3.162,6.963 -8.104,6.963 z" /></g><g
           transform="translate(121.6206,56.0132)"
           id="g52"><path
             id="path54"
             style="fill:#4f4c4d;fill-opacity:1;fill-rule:nonzero;stroke:none"
             d="m 0,0 h 21.014 v -4.685 h -1.522 c 0,0 -0.253,2.404 -2.662,2.404 H 13.162 V -23.928 H 7.973 v 21.647 h -3.8 c -2.022,0 -2.532,-1.647 -2.653,-2.404 l -1.52,0 z" /></g><g
           transform="translate(70.3267,42.6489)"
           id="g56"><path
             id="path58"
             style="fill:#3bbfe6;fill-opacity:1;fill-rule:nonzero;stroke:none"
             d="m 0,0 c 0,-6.791 -3.532,-12.885 -9.228,-15.9 l -1.306,-0.618 c -0.429,-0.197 -0.902,-0.31 -1.361,-0.31 -0.887,0 -1.591,0.376 -2.013,1.064 -0.336,0.569 -0.429,1.182 -0.297,1.884 0.198,0.972 0.956,1.461 1.18,1.583 3.358,1.525 5.518,4.95 5.518,8.741 V 6.35 c 0,3.792 -2.152,7.213 -5.474,8.721 -0.008,0.008 -0.999,0.481 -1.224,1.609 -0.132,0.703 -0.039,1.317 0.297,1.881 0.422,0.68 1.126,1.065 2.013,1.065 0.459,0 0.932,-0.103 1.361,-0.306 0,0 1.227,-0.583 1.278,-0.602 C -3.536,15.685 0,9.588 0,2.8 Z m -24.778,-12.297 c 0.224,-0.122 0.986,-0.611 1.185,-1.583 0.133,-0.702 0.043,-1.315 -0.299,-1.884 -0.419,-0.688 -1.124,-1.064 -2.014,-1.064 -0.455,0 -0.924,0.113 -1.362,0.31 l -1.305,0.618 c -5.695,3.015 -9.229,9.109 -9.229,15.9 v 2.8 c 0,6.788 3.546,12.885 9.255,15.918 0.055,0.019 1.279,0.602 1.279,0.602 0.438,0.203 0.907,0.306 1.358,0.306 0.888,0 1.599,-0.385 2.018,-1.065 0.342,-0.564 0.432,-1.178 0.299,-1.881 -0.225,-1.128 -1.213,-1.601 -1.224,-1.609 -3.322,-1.508 -5.47,-4.929 -5.47,-8.721 v -9.906 c 0,-3.791 2.151,-7.216 5.509,-8.741 m 5.877,41.609 c -15.415,0 -27.915,-12.498 -27.915,-27.911 0,-15.416 12.5,-27.914 27.915,-27.914 15.415,0 27.917,12.498 27.917,27.914 0,15.413 -12.502,27.911 -27.917,27.911" /></g><g
           transform="translate(347.6104,38.0693)"
           id="g60"><path
             id="path62"
             style="fill:#4f4c4d;fill-opacity:1;fill-rule:nonzero;stroke:none"
             d="M 0,0 H -2.863 V 11.822 H 3.252 L 3.495,10.348 H -1.254 V 7.026 H 0.27 C 2.774,7.026 4.281,5.807 4.281,3.613 4.281,1.197 2.569,0 0,0 M 0.185,5.602 H -1.254 V 1.421 h 1.335 c 1.609,0 2.571,0.668 2.571,2.142 0,1.352 -0.856,2.039 -2.467,2.039" /></g><g
           transform="translate(358.2187,49.9429)"
           id="g64"><path
             id="path66"
             style="fill:#4f4c4d;fill-opacity:1;fill-rule:nonzero;stroke:none"
             d="m 0,0 h 1.612 l 4.557,-11.654 -1.59,-0.341 -1.391,3.667 h -4.814 l -1.315,-3.547 h -1.684 z m -1.113,-6.907 h 3.77 l -1.885,5.023 z" /></g><g
           transform="translate(374.541,38.0693)"
           id="g68"><path
             id="path70"
             style="fill:#4f4c4d;fill-opacity:1;fill-rule:nonzero;stroke:none"
             d="M 0,0 V 5.449 H -5.98 V 0 h -1.612 v 11.821 h 1.612 v -4.9 H 0 v 4.9 H 1.607 V 0 Z" /></g><g
           transform="translate(386.1035,49.8906)"
           id="g72"><path
             id="path74"
             style="fill:#4f4c4d;fill-opacity:1;fill-rule:nonzero;stroke:none"
             d="M 0,0 -4.902,-5.311 V 0 h -1.617 v -11.822 h 1.617 v 5.995 l 5.463,-6.115 1.784,0.377 -5.5,6.013 L 2.051,0 Z" /></g><path
           id="path76"
           style="fill:#4f4c4d;fill-opacity:1;fill-rule:nonzero;stroke:none"
           d="m 327.792,16.139 h 0.998 v 55.825 h -0.998 z" /></g></g></g></svg>