<?xml version="1.0" encoding="UTF-8" standalone="no"?>
<svg
   xmlns:dc="http://purl.org/dc/elements/1.1/"
   xmlns:cc="http://creativecommons.org/ns#"
   xmlns:rdf="http://www.w3.org/1999/02/22-rdf-syntax-ns#"
   xmlns:svg="http://www.w3.org/2000/svg"
   xmlns="http://www.w3.org/2000/svg"
   viewBox="0 0 641.33331 229.33333"
   height="229.33333"
   width="641.33331"
   xml:space="preserve"
   id="svg2"
   version="1.1"><metadata
     id="metadata8"><rdf:RDF><cc:Work
         rdf:about=""><dc:format>image/svg+xml</dc:format><dc:type
           rdf:resource="http://purl.org/dc/dcmitype/StillImage" /></cc:Work></rdf:RDF></metadata><defs
     id="defs6" /><g
     transform="matrix(1.3333333,0,0,-1.3333333,0,229.33333)"
     id="g10"><g
       transform="scale(0.1)"
       id="g12"><path
         id="path14"
         style="fill:#009fdf;fill-opacity:1;fill-rule:evenodd;stroke:none"
         d="M 329.305,1717.52 247.445,1493.3 H 1381.85 l 81.86,224.22 z M 206.484,1381.22 124.629,1157.04 H 1259.03 l 81.86,224.18 z M 83.9258,1044.92 2.06641,820.738 H 1136.47 l 81.82,224.182 H 83.9258" /><path
         id="path16"
         style="fill:#0a2973;fill-opacity:1;fill-rule:evenodd;stroke:none"
         d="m 2413.74,735.297 v -4.727 c 51.86,-19.035 101.37,-52.316 127.33,-73.668 80.15,-66.562 115.53,-154.476 115.53,-268.55 0,-187.778 -99.03,-323.2192 -261.74,-366.0161 C 2345.36,8.08984 2293.49,3.32031 2196.77,3.32031 H 1704.04 V 1376.91 h 436.2 c 89.6,0 150.9,-4.73 205.12,-18.98 157.99,-42.78 261.73,-152.12 261.73,-325.55 0,-92.704 -33.02,-171.161 -87.23,-223.415 -23.57,-23.766 -56.59,-52.297 -106.12,-73.668 z M 1977.54,590.34 V 229.109 h 188.64 c 56.55,0 108.44,4.727 146.21,40.407 37.69,35.652 54.22,80.789 54.22,140.207 0,45.132 -11.82,87.914 -35.4,118.8 -40.07,49.926 -89.6,61.817 -174.46,61.817 z M 1975.16,828 h 153.27 c 47.15,0 70.72,0 94.3,7.121 63.7,19.016 103.79,76.004 103.79,154.457 0,92.642 -42.47,133.112 -103.79,152.082 -25.96,7.13 -51.84,9.52 -103.74,9.52 H 1975.16 Z M 3066.86,3.32031 V 1146.43 h -393.73 v 230.48 H 3767.18 L 3689.4,1146.43 H 3340.38 V 3.32031 Z m 785.19,0 V 1376.91 h 886.59 l -77.8,-230.48 H 4123.23 V 842.246 h 219.28 c 176.83,0 268.82,-42.801 332.47,-97.43 49.51,-42.8 134.38,-137.839 134.38,-325.636 0,-185.344 -87.24,-287.504 -160.34,-339.8011 C 4564.18,20 4474.56,3.32031 4293,3.32031 Z M 4123.23,233.836 h 205.15 c 77.78,0 124.93,19.035 157.96,61.816 16.5,21.371 40.07,59.438 40.07,130.711 0,71.274 -23.57,121.196 -70.72,156.852 -28.28,21.371 -66.03,33.223 -129.69,33.223 H 4123.23 V 233.836" /></g></g></svg>