<svg width="150" height="150" viewBox="0 0 150 150" fill="none" xmlns="http://www.w3.org/2000/svg">
<path d="M74.9998 150C33.5786 150 0 116.421 0 75.0002C0 33.5789 33.5786 0.000320435 74.9998 0.000320435C116.421 0.000320435 150 33.5789 150 75.0002C149.956 116.403 116.403 149.956 74.9998 150ZM106.585 72.6105C106.066 71.569 105.222 70.7246 104.18 70.2054V70.1787L61.3231 48.7501C58.6764 47.4276 55.4589 48.5008 54.1362 51.1476C53.7601 51.9 53.5665 52.7306 53.5712 53.5715V96.4285C53.5699 99.3873 55.9671 101.787 58.9259 101.788C59.7581 101.789 60.5789 101.595 61.3231 101.223L104.18 79.7946C106.828 78.475 107.905 75.2585 106.585 72.6105Z" fill="white" fill-opacity="0.8"/>
</svg>
