<?xml version="1.0" standalone="no"?>
<!DOCTYPE svg PUBLIC "-//W3C//DTD SVG 20010904//EN"
 "http://www.w3.org/TR/2001/REC-SVG-20010904/DTD/svg10.dtd">
<svg version="1.0" xmlns="http://www.w3.org/2000/svg"
 width="270.000000pt" height="270.000000pt" viewBox="0 0 270.000000 270.000000"
 preserveAspectRatio="xMidYMid meet">
<metadata>
Created by potrace 1.11, written by Peter Selinger 2001-2013
</metadata>
<g transform="translate(0.000000,270.000000) scale(0.100000,-0.100000)"
fill="#000000" stroke="none">
<path d="M1237 2284 c-1 -1 -28 -4 -59 -8 -275 -29 -484 -281 -548 -660 l-17
-101 -110 -3 -111 -3 1 371 c1 241 -1 370 -8 371 -20 1 -151 1 -206 0 l-56 -1
0 -900 0 -900 134 0 133 0 1 63 c0 34 1 212 1 395 l1 332 31 1 c79 2 178 1
181 -2 1 -2 6 -26 9 -54 14 -112 18 -133 37 -209 75 -308 274 -523 512 -552
68 -9 179 -9 242 0 198 28 334 220 385 546 22 144 28 194 46 425 3 44 8 97 9
117 2 20 7 72 10 115 3 43 8 107 10 143 3 36 8 96 10 134 3 38 8 73 11 77 2 5
87 8 188 8 l183 0 1 -762 c0 -419 1 -765 1 -769 1 -5 62 -8 136 -8 l135 0 0
900 0 900 -32 1 c-38 1 -837 0 -855 0 -9 -1 -13 -19 -13 -57 l0 -56 -37 29
c-61 47 -87 61 -154 83 -52 18 -193 42 -202 34z m133 -297 c85 -40 156 -137
203 -277 8 -25 14 -67 12 -94 -4 -57 -14 -172 -20 -236 -3 -25 -7 -79 -10
-120 -13 -183 -45 -355 -82 -445 -43 -102 -80 -125 -202 -126 -65 0 -89 4
-135 26 -148 70 -241 291 -250 593 -8 323 87 596 236 673 81 42 168 44 248 6z"/>
</g>
</svg>
