<?xml version="1.0" standalone="no"?>
<!DOCTYPE svg PUBLIC "-//W3C//DTD SVG 20010904//EN"
 "http://www.w3.org/TR/2001/REC-SVG-20010904/DTD/svg10.dtd">
<svg version="1.0" xmlns="http://www.w3.org/2000/svg"
 width="512.000000pt" height="512.000000pt" viewBox="0 0 512.000000 512.000000"
 preserveAspectRatio="xMidYMid meet">
<metadata>
Created by potrace 1.11, written by Peter Selinger 2001-2013
</metadata>
<g transform="translate(0.000000,512.000000) scale(0.100000,-0.100000)"
fill="#000000" stroke="none">
<path d="M652 4737 l-382 -382 383 -383 382 -382 383 383 384 384 -370 369
c-203 203 -375 374 -383 381 -13 10 -79 -52 -397 -370z"/>
<path d="M3368 3145 c-2 -2 -25 -6 -53 -9 -27 -4 -81 -14 -120 -22 -38 -8 -80
-17 -93 -20 -13 -3 -58 -16 -100 -30 -602 -201 -953 -754 -946 -1494 1 -110
10 -250 19 -299 1 -9 6 -36 10 -61 21 -125 29 -162 66 -278 81 -253 247 -501
439 -653 155 -123 387 -225 580 -254 25 -4 70 -11 100 -15 74 -11 350 -10 425
1 255 39 447 133 628 308 42 41 77 70 78 65 2 -19 8 -132 13 -239 3 -60 5
-111 5 -112 1 -1 109 -1 241 -1 l240 1 1 31 c0 17 1 382 1 811 l1 780 -669 0
-669 0 -1 -240 c0 -132 1 -245 3 -250 2 -7 136 -10 388 -10 l384 0 -4 -75
c-11 -209 -106 -365 -284 -470 -82 -48 -198 -91 -286 -105 -11 -2 -38 -7 -60
-10 -22 -4 -90 -6 -150 -6 -352 1 -601 157 -745 464 -35 75 -74 195 -86 265
-3 15 -7 34 -9 42 -19 71 -27 426 -12 550 32 265 137 502 281 634 115 106 217
156 411 203 52 12 274 11 340 -2 191 -39 335 -116 438 -237 48 -57 108 -160
127 -220 l12 -38 293 0 293 0 -15 68 c-56 247 -217 500 -413 646 -30 22 -57
44 -60 47 -13 16 -173 101 -241 128 -201 80 -368 109 -621 109 -98 -1 -179 -2
-180 -3z"/>
<path d="M221 3130 c-4 -3 -7 -115 -6 -250 l0 -245 255 0 255 0 0 -1030 0
-1030 -245 -1 c-135 -1 -250 -2 -255 -3 -7 -1 -10 -88 -10 -246 0 -238 1 -245
20 -246 26 -1 1574 -1 1600 0 20 1 20 7 19 238 -1 131 -2 243 -3 248 -1 7 -90
10 -253 10 l-253 0 0 1030 0 1030 255 0 255 0 0 248 c0 159 -3 247 -10 248
-33 4 -1618 3 -1624 -1z"/>
</g>
</svg>
