<svg id="icon-group" viewBox="0 0 595.9 595.9" fill="none">
	<path stroke="currentColor" stroke-width="15" fill="'none" d="M527.8,298c0-16.1,12.6-29.3,28.6-30.2c-5.7-49.2-25.1-94.2-54.3-131.1c-11.9,10.6-30.1,10.2-41.6-1.2c-11.4-11.4-11.8-29.7-1.2-41.6c-36.9-29.2-81.9-48.6-131.1-54.3c-0.9,15.9-14.1,28.6-30.2,28.6s-29.3-12.6-30.2-28.6c-49.2,5.7-94.2,25.1-131.1,54.3c10.6,11.9,10.2,30.1-1.2,41.6c-11.4,11.4-29.7,11.8-41.6,1.2c-29.2,36.9-48.6,81.9-54.3,131.1c15.9,0.9,28.6,14.1,28.6,30.2c0,16.1-12.6,29.3-28.6,30.2c5.7,49.2,25.1,94.2,54.3,131.1c11.9-10.6,30.1-10.2,41.6,1.2c11.4,11.4,11.8,29.7,1.2,41.6c36.9,29.2,81.9,48.6,131.1,54.3c0.9-15.9,14.1-28.6,30.2-28.6s29.3,12.6,30.2,28.6c49.2-5.7,94.2-25.1,131.1-54.3c-10.6-11.9-10.2-30.1,1.2-41.6c11.4-11.4,29.7-11.8,41.6-1.2c29.2-36.9,48.6-81.9,54.3-131.1C540.4,327.3,527.8,314.1,527.8,298z">
	</path>
	<path stroke="currentColor" stroke-width="15" fill="'none" d="M328.2,37.8c0,0.6,0,1.2,0,1.7c-0.9,15.9-14.1,28.6-30.2,28.6s-29.3-12.6-30.2-28.6c0-0.6,0-1.2,0-1.7c0-16.7,13.6-30.3,30.3-30.3C314.7,7.5,328.2,21.1,328.2,37.8z">
	</path>
	<path stroke="currentColor" stroke-width="15" fill="'none" d="M135.4,135.4c-11.4,11.4-29.7,11.8-41.6,1.2c-0.4-0.4-0.9-0.8-1.3-1.2c-11.8-11.8-11.8-31,0-42.8s31-11.8,42.8,0c0.4,0.4,0.8,0.8,1.2,1.3C147.2,105.8,146.8,124,135.4,135.4z">
	</path>
	<path stroke="currentColor" stroke-width="15" fill="'none" d="M68.1,298c0,16.1-12.6,29.3-28.6,30.2c-0.6,0-1.2,0-1.7,0c-16.7,0-30.3-13.6-30.3-30.3c0-16.7,13.6-30.3,30.3-30.3c0.6,0,1.2,0,1.7,0C55.4,268.6,68.1,281.8,68.1,298z">
	</path>
	<path stroke="currentColor" stroke-width="15" fill="'none" d="M136.6,502.1c-0.4,0.4-0.8,0.9-1.2,1.3c-11.8,11.8-31,11.8-42.8,0c-11.8-11.8-11.8-31,0-42.8c0.4-0.4,0.8-0.8,1.3-1.2c11.9-10.6,30.1-10.2,41.6,1.2C146.8,471.9,147.2,490.2,136.6,502.1z">
	</path>
	<path stroke="currentColor" stroke-width="15" fill="'none" d="M328.2,558.1c0,16.7-13.6,30.3-30.3,30.3s-30.3-13.6-30.3-30.3c0-0.6,0-1.2,0-1.7c0.9-15.9,14.1-28.6,30.2-28.6s29.3,12.6,30.2,28.6C328.2,557,328.2,557.5,328.2,558.1z">
	</path>
	<path stroke="currentColor" stroke-width="15" fill="'none" d="M503.3,503.3c-11.8,11.8-31,11.8-42.8,0c-0.4-0.4-0.8-0.8-1.2-1.3c-10.6-11.9-10.2-30.1,1.2-41.6c11.4-11.4,29.7-11.8,41.6-1.2c0.4,0.4,0.9,0.8,1.3,1.2C515.1,472.3,515.1,491.5,503.3,503.3z">
	</path>
	<path stroke="currentColor" stroke-width="15" fill="'none" d="M588.4,298c0,16.7-13.6,30.3-30.3,30.3c-0.6,0-1.2,0-1.7,0c-15.9-0.9-28.6-14.1-28.6-30.2s12.6-29.3,28.6-30.2c0.6,0,1.2,0,1.7,0C574.8,267.7,588.4,281.2,588.4,298z">
	</path>
	<path stroke="currentColor" stroke-width="15" fill="'none" d="M503.3,135.4c-0.4,0.4-0.8,0.8-1.3,1.2c-11.9,10.6-30.1,10.2-41.6-1.2c-11.4-11.4-11.8-29.7-1.2-41.6c0.4-0.4,0.8-0.9,1.2-1.3c11.8-11.8,31-11.8,42.8,0C515.1,104.4,515.1,123.6,503.3,135.4z">
	</path>
	<path stroke="currentColor" stroke-width="15" fill="'none" d="M270.7,209.1c-15-15-15-39.3,0-54.3s39.3-15,54.3,0s15,39.3,0,54.3c-2.4,2.4-5.1,4.5-7.9,6.1c-11.8,6.8-26.5,6.8-38.4,0C275.8,213.6,273.1,211.6,270.7,209.1z">
	</path>
	<path stroke="currentColor" stroke-width="15" fill="'none" d="M164,394.5c-15-15-15-39.3,0-54.3c12.5-12.5,31.4-14.6,46-6.3c2.9,1.7,5.7,3.8,8.2,6.3c7.5,7.5,11.3,17.4,11.2,27.2c0,9.8-3.8,19.6-11.2,27C203.3,409.5,179,409.5,164,394.5z">
	</path>
	<path stroke="currentColor" stroke-width="15" fill="'none" d="M377.6,394.4c-7.4-7.4-11.2-17.2-11.2-26.9c-0.1-9.9,3.7-19.8,11.2-27.3c2.4-2.4,5.1-4.5,8-6.1c14.7-8.5,33.7-6.4,46.3,6.1c15,15,15,39.3,0,54.3C416.9,409.4,392.6,409.4,377.6,394.4z">
	</path>
	<path stroke="currentColor" stroke-width="15" fill="'none" d="M366.3,367.5H229.5c0-9.9-3.7-19.7-11.2-27.2c-2.5-2.5-5.3-4.6-8.2-6.3l68.6-118.7c11.8,6.8,26.5,6.8,38.4,0l68.6,118.8c-2.9,1.6-5.5,3.7-8,6.1C370,347.7,366.3,357.6,366.3,367.5z">
	</path>
</svg>
